%TF.GenerationSoftware,KiCad,Pcbnew,(5.1.9)-1*%
%TF.CreationDate,2021-03-16T13:01:06+03:00*%
%TF.ProjectId,VedgaZigBee,56656467-615a-4696-9742-65652e6b6963,rev?*%
%TF.SameCoordinates,Original*%
%TF.FileFunction,Soldermask,Bot*%
%TF.FilePolarity,Negative*%
%FSLAX46Y46*%
G04 Gerber Fmt 4.6, Leading zero omitted, Abs format (unit mm)*
G04 Created by KiCad (PCBNEW (5.1.9)-1) date 2021-03-16 13:01:06*
%MOMM*%
%LPD*%
G01*
G04 APERTURE LIST*
%ADD10O,1.700000X1.700000*%
%ADD11R,1.700000X1.700000*%
%ADD12C,1.700000*%
G04 APERTURE END LIST*
D10*
%TO.C,J6*%
X133985000Y-111125000D03*
X133985000Y-108585000D03*
X133985000Y-106045000D03*
X133985000Y-103505000D03*
X133985000Y-100965000D03*
X133985000Y-98425000D03*
X133985000Y-95885000D03*
X133985000Y-93345000D03*
D11*
X133985000Y-90805000D03*
%TD*%
D10*
%TO.C,J7*%
X100330000Y-108585000D03*
X97790000Y-108585000D03*
D11*
X95250000Y-108585000D03*
%TD*%
%TO.C,J1*%
G36*
G01*
X91860000Y-127600000D02*
X91860000Y-126400000D01*
G75*
G02*
X92110000Y-126150000I250000J0D01*
G01*
X93310000Y-126150000D01*
G75*
G02*
X93560000Y-126400000I0J-250000D01*
G01*
X93560000Y-127600000D01*
G75*
G02*
X93310000Y-127850000I-250000J0D01*
G01*
X92110000Y-127850000D01*
G75*
G02*
X91860000Y-127600000I0J250000D01*
G01*
G37*
D12*
X92710000Y-129540000D03*
X92710000Y-132080000D03*
X92710000Y-134620000D03*
X92710000Y-137160000D03*
X95250000Y-127000000D03*
X95250000Y-129540000D03*
X95250000Y-132080000D03*
X95250000Y-134620000D03*
X95250000Y-137160000D03*
%TD*%
D11*
%TO.C,J2*%
X90170000Y-113030000D03*
D10*
X90170000Y-115570000D03*
%TD*%
D11*
%TO.C,J3*%
X131445000Y-115570000D03*
D10*
X133985000Y-115570000D03*
X131445000Y-118110000D03*
X133985000Y-118110000D03*
X131445000Y-120650000D03*
X133985000Y-120650000D03*
X131445000Y-123190000D03*
X133985000Y-123190000D03*
X131445000Y-125730000D03*
X133985000Y-125730000D03*
X131445000Y-128270000D03*
X133985000Y-128270000D03*
X131445000Y-130810000D03*
X133985000Y-130810000D03*
X131445000Y-133350000D03*
X133985000Y-133350000D03*
X131445000Y-135890000D03*
X133985000Y-135890000D03*
X131445000Y-138430000D03*
X133985000Y-138430000D03*
X131445000Y-140970000D03*
X133985000Y-140970000D03*
%TD*%
D11*
%TO.C,J4*%
X90170000Y-90805000D03*
D10*
X90170000Y-93345000D03*
X90170000Y-95885000D03*
X90170000Y-98425000D03*
X90170000Y-100965000D03*
X90170000Y-103505000D03*
%TD*%
D11*
%TO.C,J5*%
X95250000Y-90805000D03*
D10*
X95250000Y-93345000D03*
X95250000Y-95885000D03*
X95250000Y-98425000D03*
%TD*%
M02*
