M48
; DRILL file {KiCad (5.1.9)-1} date 03/16/21 13:01:12
; FORMAT={-:-/ absolute / inch / decimal}
; #@! TF.CreationDate,2021-03-16T13:01:12+03:00
; #@! TF.GenerationSoftware,Kicad,Pcbnew,(5.1.9)-1
; #@! TF.FileFunction,Plated,1,2,PTH
FMAT,2
INCH
T1C0.0157
T2C0.0394
%
G90
G05
T1
X4.0175Y-4.9564
X4.1002Y-4.0205
X4.111Y-4.0874
X4.1349Y-3.9452
X4.135Y-4.1487
X4.2606Y-4.116
X4.3589Y-4.9958
X4.3784Y-4.6615
X4.3822Y-4.1004
X4.3954Y-5.0202
X4.4223Y-4.0552
X4.457Y-4.1188
X4.4829Y-4.557
X4.5117Y-5.1477
X4.516Y-4.1148
X4.5903Y-4.2812
X4.5904Y-4.0996
X4.6115Y-4.6595
X4.6298Y-4.4445
X4.6541Y-4.5799
X4.6614Y-4.5228
X4.7099Y-3.8052
X4.7815Y-4.8623
X4.7818Y-4.9025
X4.8906Y-5.0707
X4.9063Y-3.6508
X4.9297Y-4.2672
X4.9596Y-4.1727
T2
X3.55Y-3.575
X3.55Y-3.675
X3.55Y-3.775
X3.55Y-3.875
X3.55Y-3.975
X3.55Y-4.075
X3.55Y-4.45
X3.55Y-4.55
X3.65Y-5.0
X3.65Y-5.1
X3.65Y-5.2
X3.65Y-5.3
X3.65Y-5.4
X3.75Y-3.575
X3.75Y-3.675
X3.75Y-3.775
X3.75Y-3.875
X3.75Y-4.275
X3.75Y-5.0
X3.75Y-5.1
X3.75Y-5.2
X3.75Y-5.3
X3.75Y-5.4
X3.85Y-4.275
X3.95Y-4.275
X5.175Y-4.55
X5.175Y-4.65
X5.175Y-4.75
X5.175Y-4.85
X5.175Y-4.95
X5.175Y-5.05
X5.175Y-5.15
X5.175Y-5.25
X5.175Y-5.35
X5.175Y-5.45
X5.175Y-5.55
X5.275Y-3.575
X5.275Y-3.675
X5.275Y-3.775
X5.275Y-3.875
X5.275Y-3.975
X5.275Y-4.075
X5.275Y-4.175
X5.275Y-4.275
X5.275Y-4.375
X5.275Y-4.55
X5.275Y-4.65
X5.275Y-4.75
X5.275Y-4.85
X5.275Y-4.95
X5.275Y-5.05
X5.275Y-5.15
X5.275Y-5.25
X5.275Y-5.35
X5.275Y-5.45
X5.275Y-5.55
T0
M30
