%TF.GenerationSoftware,KiCad,Pcbnew,(5.1.9)-1*%
%TF.CreationDate,2021-03-16T13:01:06+03:00*%
%TF.ProjectId,VedgaZigBee,56656467-615a-4696-9742-65652e6b6963,rev?*%
%TF.SameCoordinates,Original*%
%TF.FileFunction,Soldermask,Top*%
%TF.FilePolarity,Negative*%
%FSLAX46Y46*%
G04 Gerber Fmt 4.6, Leading zero omitted, Abs format (unit mm)*
G04 Created by KiCad (PCBNEW (5.1.9)-1) date 2021-03-16 13:01:06*
%MOMM*%
%LPD*%
G01*
G04 APERTURE LIST*
%ADD10O,1.700000X1.700000*%
%ADD11R,1.700000X1.700000*%
%ADD12R,0.800000X1.524000*%
%ADD13R,1.524000X0.800000*%
%ADD14C,1.700000*%
G04 APERTURE END LIST*
D10*
%TO.C,J6*%
X133985000Y-111125000D03*
X133985000Y-108585000D03*
X133985000Y-106045000D03*
X133985000Y-103505000D03*
X133985000Y-100965000D03*
X133985000Y-98425000D03*
X133985000Y-95885000D03*
X133985000Y-93345000D03*
D11*
X133985000Y-90805000D03*
%TD*%
D10*
%TO.C,J7*%
X100330000Y-108585000D03*
X97790000Y-108585000D03*
D11*
X95250000Y-108585000D03*
%TD*%
D12*
%TO.C,U1*%
X120650000Y-105990000D03*
X119380000Y-105990000D03*
X118110000Y-105990000D03*
X116840000Y-105990000D03*
X115570000Y-105990000D03*
X114300000Y-105990000D03*
X113030000Y-105990000D03*
X111760000Y-105990000D03*
X110490000Y-105990000D03*
D13*
X123190000Y-104990000D03*
X123190000Y-103720000D03*
X123190000Y-102450000D03*
X123190000Y-101180000D03*
X123190000Y-99910000D03*
X123190000Y-98640000D03*
X123190000Y-97370000D03*
X123190000Y-96100000D03*
X123190000Y-94830000D03*
X123190000Y-93560000D03*
X123190000Y-92290000D03*
X123190000Y-91020000D03*
X123190000Y-89750000D03*
D12*
X109177900Y-105990000D03*
D13*
X106412000Y-104990000D03*
X106412000Y-103720000D03*
X106412000Y-102450000D03*
X106412000Y-101180000D03*
X106412000Y-99910000D03*
X106412000Y-98640000D03*
X106412000Y-97370000D03*
X106412000Y-96100000D03*
X106412000Y-94830000D03*
X106412000Y-93560000D03*
X106412000Y-92290000D03*
X106412000Y-91020000D03*
X106412000Y-89750000D03*
%TD*%
%TO.C,C1*%
G36*
G01*
X98880000Y-113505000D02*
X98880000Y-112555000D01*
G75*
G02*
X99130000Y-112305000I250000J0D01*
G01*
X99630000Y-112305000D01*
G75*
G02*
X99880000Y-112555000I0J-250000D01*
G01*
X99880000Y-113505000D01*
G75*
G02*
X99630000Y-113755000I-250000J0D01*
G01*
X99130000Y-113755000D01*
G75*
G02*
X98880000Y-113505000I0J250000D01*
G01*
G37*
G36*
G01*
X100780000Y-113505000D02*
X100780000Y-112555000D01*
G75*
G02*
X101030000Y-112305000I250000J0D01*
G01*
X101530000Y-112305000D01*
G75*
G02*
X101780000Y-112555000I0J-250000D01*
G01*
X101780000Y-113505000D01*
G75*
G02*
X101530000Y-113755000I-250000J0D01*
G01*
X101030000Y-113755000D01*
G75*
G02*
X100780000Y-113505000I0J250000D01*
G01*
G37*
%TD*%
%TO.C,J1*%
G36*
G01*
X91860000Y-127600000D02*
X91860000Y-126400000D01*
G75*
G02*
X92110000Y-126150000I250000J0D01*
G01*
X93310000Y-126150000D01*
G75*
G02*
X93560000Y-126400000I0J-250000D01*
G01*
X93560000Y-127600000D01*
G75*
G02*
X93310000Y-127850000I-250000J0D01*
G01*
X92110000Y-127850000D01*
G75*
G02*
X91860000Y-127600000I0J250000D01*
G01*
G37*
D14*
X92710000Y-129540000D03*
X92710000Y-132080000D03*
X92710000Y-134620000D03*
X92710000Y-137160000D03*
X95250000Y-127000000D03*
X95250000Y-129540000D03*
X95250000Y-132080000D03*
X95250000Y-134620000D03*
X95250000Y-137160000D03*
%TD*%
D11*
%TO.C,J2*%
X90170000Y-113030000D03*
D10*
X90170000Y-115570000D03*
%TD*%
D11*
%TO.C,J3*%
X131445000Y-115570000D03*
D10*
X133985000Y-115570000D03*
X131445000Y-118110000D03*
X133985000Y-118110000D03*
X131445000Y-120650000D03*
X133985000Y-120650000D03*
X131445000Y-123190000D03*
X133985000Y-123190000D03*
X131445000Y-125730000D03*
X133985000Y-125730000D03*
X131445000Y-128270000D03*
X133985000Y-128270000D03*
X131445000Y-130810000D03*
X133985000Y-130810000D03*
X131445000Y-133350000D03*
X133985000Y-133350000D03*
X131445000Y-135890000D03*
X133985000Y-135890000D03*
X131445000Y-138430000D03*
X133985000Y-138430000D03*
X131445000Y-140970000D03*
X133985000Y-140970000D03*
%TD*%
D11*
%TO.C,J4*%
X90170000Y-90805000D03*
D10*
X90170000Y-93345000D03*
X90170000Y-95885000D03*
X90170000Y-98425000D03*
X90170000Y-100965000D03*
X90170000Y-103505000D03*
%TD*%
D11*
%TO.C,J5*%
X95250000Y-90805000D03*
D10*
X95250000Y-93345000D03*
X95250000Y-95885000D03*
X95250000Y-98425000D03*
%TD*%
%TO.C,R1*%
G36*
G01*
X98905000Y-116020002D02*
X98905000Y-115119998D01*
G75*
G02*
X99154998Y-114870000I249998J0D01*
G01*
X99680002Y-114870000D01*
G75*
G02*
X99930000Y-115119998I0J-249998D01*
G01*
X99930000Y-116020002D01*
G75*
G02*
X99680002Y-116270000I-249998J0D01*
G01*
X99154998Y-116270000D01*
G75*
G02*
X98905000Y-116020002I0J249998D01*
G01*
G37*
G36*
G01*
X100730000Y-116020002D02*
X100730000Y-115119998D01*
G75*
G02*
X100979998Y-114870000I249998J0D01*
G01*
X101505002Y-114870000D01*
G75*
G02*
X101755000Y-115119998I0J-249998D01*
G01*
X101755000Y-116020002D01*
G75*
G02*
X101505002Y-116270000I-249998J0D01*
G01*
X100979998Y-116270000D01*
G75*
G02*
X100730000Y-116020002I0J249998D01*
G01*
G37*
%TD*%
D13*
%TO.C,U2*%
X122823000Y-136945000D03*
X122823000Y-135675000D03*
X122823000Y-134405000D03*
X122823000Y-133135000D03*
X122823000Y-131865000D03*
X122823000Y-130595000D03*
X122823000Y-129325000D03*
X122823000Y-128055000D03*
X122823000Y-126785000D03*
X122823000Y-125515000D03*
X122823000Y-124245000D03*
X122823000Y-122975000D03*
X122823000Y-121705000D03*
X122823000Y-120435000D03*
X106525000Y-136945000D03*
X106525000Y-135675000D03*
X106525000Y-134405000D03*
X106525000Y-133135000D03*
X106525000Y-131865000D03*
X106525000Y-130595000D03*
X106525000Y-129325000D03*
X106525000Y-128055000D03*
X106525000Y-126785000D03*
X106525000Y-125515000D03*
X106525000Y-124245000D03*
X106525000Y-122975000D03*
X106525000Y-121705000D03*
X106525000Y-120435000D03*
X106525000Y-141145000D03*
X106525000Y-142415000D03*
%TD*%
M02*
